HIERARCHY
ROOT mixamorig:Hips
{
	OFFSET 0.000000 77.627144 7.190781
	CHANNELS 6 Xposition Yposition Zposition Xrotation Yrotation Zrotation
	JOINT mixamorig:Spine
	{
		OFFSET 0.000000 14.685707 -1.734714
		CHANNELS 3 Xrotation Yrotation Zrotation
		JOINT mixamorig:Spine1
		{
			OFFSET 0.000000 17.133331 -2.023833
			CHANNELS 3 Xrotation Yrotation Zrotation
			JOINT mixamorig:Spine2
			{
				OFFSET 0.000000 19.580948 -2.312953
				CHANNELS 3 Xrotation Yrotation Zrotation
				JOINT mixamorig:Neck
				{
					OFFSET 0.000000 22.028564 -2.602070
					CHANNELS 3 Xrotation Yrotation Zrotation
					JOINT mixamorig:Head
					{
						OFFSET 0.000000 7.772293 1.167654
						CHANNELS 3 Xrotation Yrotation Zrotation
						JOINT mixamorig:HeadTop_End
						{
							OFFSET 0.000000 26.518158 3.983897
							CHANNELS 3 Xrotation Yrotation Zrotation
							End Site
							{
								OFFSET 0.000000 26.815750 0.000000
							}
						}
					}
				}
				JOINT mixamorig:LeftShoulder
				{
					OFFSET 11.646637 18.513367 -2.583829
					CHANNELS 3 Xrotation Yrotation Zrotation
					JOINT mixamorig:LeftArm
					{
						OFFSET 23.494797 -6.787735 0.036483
						CHANNELS 3 Xrotation Yrotation Zrotation
						JOINT mixamorig:LeftForeArm
						{
							OFFSET 22.628841 -2.236465 0.895561
							CHANNELS 3 Xrotation Yrotation Zrotation
							JOINT mixamorig:LeftHand
							{
								OFFSET 32.235813 0.214081 0.341628
								CHANNELS 3 Xrotation Yrotation Zrotation
								JOINT mixamorig:LeftHandThumb1
								{
									OFFSET 4.043732 -2.301453 4.675424
									CHANNELS 3 Xrotation Yrotation Zrotation
									JOINT mixamorig:LeftHandThumb2
									{
										OFFSET 3.235001 -1.841141 3.740334
										CHANNELS 3 Xrotation Yrotation Zrotation
										JOINT mixamorig:LeftHandThumb3
										{
											OFFSET 4.136284 -1.355438 2.884997
											CHANNELS 3 Xrotation Yrotation Zrotation
											JOINT mixamorig:LeftHandThumb4
											{
												OFFSET 3.443222 -1.440781 1.895251
												CHANNELS 3 Xrotation Yrotation Zrotation
												End Site
												{
													OFFSET 3.082619 -1.455811 2.429330
												}
											}
										}
									}
								}
								JOINT mixamorig:LeftHandIndex1
								{
									OFFSET 12.534279 0.552322 5.370454
									CHANNELS 3 Xrotation Yrotation Zrotation
									JOINT mixamorig:LeftHandIndex2
									{
										OFFSET 4.462021 -0.042068 -0.222766
										CHANNELS 3 Xrotation Yrotation Zrotation
										JOINT mixamorig:LeftHandIndex3
										{
											OFFSET 4.426414 -0.140015 -0.221126
											CHANNELS 3 Xrotation Yrotation Zrotation
											JOINT mixamorig:LeftHandIndex4
											{
												OFFSET 3.584976 -0.033737 -0.180877
												CHANNELS 3 Xrotation Yrotation Zrotation
												End Site
												{
													OFFSET 3.584984 -0.033707 -0.180676
												}
											}
										}
									}
								}
								JOINT mixamorig:LeftHandMiddle1
								{
									OFFSET 12.067444 0.830978 1.411757
									CHANNELS 3 Xrotation Yrotation Zrotation
									JOINT mixamorig:LeftHandMiddle2
									{
										OFFSET 5.488625 0.110443 -0.140360
										CHANNELS 3 Xrotation Yrotation Zrotation
										JOINT mixamorig:LeftHandMiddle3
										{
											OFFSET 5.193268 -0.285706 -0.132956
											CHANNELS 3 Xrotation Yrotation Zrotation
											JOINT mixamorig:LeftHandMiddle4
											{
												OFFSET 4.443779 -0.316895 -0.113542
												CHANNELS 3 Xrotation Yrotation Zrotation
												End Site
												{
													OFFSET 4.443962 -0.316620 -0.107084
												}
											}
										}
									}
								}
								JOINT mixamorig:LeftHandRing1
								{
									OFFSET 12.202324 0.602158 -2.428782
									CHANNELS 3 Xrotation Yrotation Zrotation
									JOINT mixamorig:LeftHandRing2
									{
										OFFSET 4.681709 0.293594 -0.070412
										CHANNELS 3 Xrotation Yrotation Zrotation
										JOINT mixamorig:LeftHandRing3
										{
											OFFSET 4.517784 0.001785 -0.067170
											CHANNELS 3 Xrotation Yrotation Zrotation
											JOINT mixamorig:LeftHandRing4
											{
												OFFSET 3.536186 -0.473984 -0.050865
												CHANNELS 3 Xrotation Yrotation Zrotation
												End Site
												{
													OFFSET 3.536438 -0.473450 -0.036327
												}
											}
										}
									}
								}
								JOINT mixamorig:LeftHandPinky1
								{
									OFFSET 11.261032 -0.021225 -5.740205
									CHANNELS 3 Xrotation Yrotation Zrotation
									JOINT mixamorig:LeftHandPinky2
									{
										OFFSET 4.446136 0.226913 -0.056313
										CHANNELS 3 Xrotation Yrotation Zrotation
										JOINT mixamorig:LeftHandPinky3
										{
											OFFSET 3.536148 0.035980 -0.044635
											CHANNELS 3 Xrotation Yrotation Zrotation
											JOINT mixamorig:LeftHandPinky4
											{
												OFFSET 2.822449 0.069366 -0.035670
												CHANNELS 3 Xrotation Yrotation Zrotation
												End Site
												{
													OFFSET 2.822449 0.069397 -0.035034
												}
											}
										}
									}
								}
							}
						}
					}
				}
				JOINT mixamorig:RightShoulder
				{
					OFFSET -11.646637 18.513367 -2.620312
					CHANNELS 3 Xrotation Yrotation Zrotation
					JOINT mixamorig:RightArm
					{
						OFFSET -23.494804 -6.787735 -0.036485
						CHANNELS 3 Xrotation Yrotation Zrotation
						JOINT mixamorig:RightForeArm
						{
							OFFSET -22.628826 -2.236481 0.960591
							CHANNELS 3 Xrotation Yrotation Zrotation
							JOINT mixamorig:RightHand
							{
								OFFSET -32.235806 0.214096 0.317908
								CHANNELS 3 Xrotation Yrotation Zrotation
								JOINT mixamorig:RightHandThumb1
								{
									OFFSET -4.056908 -2.304855 4.721249
									CHANNELS 3 Xrotation Yrotation Zrotation
									JOINT mixamorig:RightHandThumb2
									{
										OFFSET -3.245529 -1.843887 3.777003
										CHANNELS 3 Xrotation Yrotation Zrotation
										JOINT mixamorig:RightHandThumb3
										{
											OFFSET -4.153908 -1.359879 2.907515
											CHANNELS 3 Xrotation Yrotation Zrotation
											JOINT mixamorig:RightHandThumb4
											{
												OFFSET -3.491310 -1.375549 1.529044
												CHANNELS 3 Xrotation Yrotation Zrotation
												End Site
												{
													OFFSET -3.035126 -1.400162 2.290608
												}
											}
										}
									}
								}
								JOINT mixamorig:RightHandIndex1
								{
									OFFSET -12.331047 0.757294 5.317495
									CHANNELS 3 Xrotation Yrotation Zrotation
									JOINT mixamorig:RightHandIndex2
									{
										OFFSET -4.758568 -0.224289 -0.035605
										CHANNELS 3 Xrotation Yrotation Zrotation
										JOINT mixamorig:RightHandIndex3
										{
											OFFSET -4.415932 -0.181503 -0.033052
											CHANNELS 3 Xrotation Yrotation Zrotation
											JOINT mixamorig:RightHandIndex4
											{
												OFFSET -3.678474 0.414856 -0.027373
												CHANNELS 3 Xrotation Yrotation Zrotation
												End Site
												{
													OFFSET -3.678375 0.414001 -0.046045
												}
											}
										}
									}
								}
								JOINT mixamorig:RightHandMiddle1
								{
									OFFSET -12.051239 0.663742 1.548264
									CHANNELS 3 Xrotation Yrotation Zrotation
									JOINT mixamorig:RightHandMiddle2
									{
										OFFSET -5.374817 0.301971 -0.166537
										CHANNELS 3 Xrotation Yrotation Zrotation
										JOINT mixamorig:RightHandMiddle3
										{
											OFFSET -5.310471 -0.301758 -0.164593
											CHANNELS 3 Xrotation Yrotation Zrotation
											JOINT mixamorig:RightHandMiddle4
											{
												OFFSET -4.485832 -0.342514 -0.139207
												CHANNELS 3 Xrotation Yrotation Zrotation
												End Site
												{
													OFFSET -4.486198 -0.342010 -0.127963
												}
											}
										}
									}
								}
								JOINT mixamorig:RightHandRing1
								{
									OFFSET -12.195183 0.742325 -2.381488
									CHANNELS 3 Xrotation Yrotation Zrotation
									JOINT mixamorig:RightHandRing2
									{
										OFFSET -4.583191 0.034424 -0.012763
										CHANNELS 3 Xrotation Yrotation Zrotation
										JOINT mixamorig:RightHandRing3
										{
											OFFSET -4.612793 0.026199 -0.012632
											CHANNELS 3 Xrotation Yrotation Zrotation
											JOINT mixamorig:RightHandRing4
											{
												OFFSET -3.314957 -0.541855 -0.006643
												CHANNELS 3 Xrotation Yrotation Zrotation
												End Site
												{
													OFFSET -3.315063 -0.541092 0.010116
												}
											}
										}
									}
								}
								JOINT mixamorig:RightHandPinky1
								{
									OFFSET -11.332825 -0.054398 -5.574547
									CHANNELS 3 Xrotation Yrotation Zrotation
									JOINT mixamorig:RightHandPinky2
									{
										OFFSET -4.462639 0.300003 -0.206312
										CHANNELS 3 Xrotation Yrotation Zrotation
										JOINT mixamorig:RightHandPinky3
										{
											OFFSET -3.493774 0.049591 -0.161451
											CHANNELS 3 Xrotation Yrotation Zrotation
											JOINT mixamorig:RightHandPinky4
											{
												OFFSET -2.793701 0.056946 -0.129098
												CHANNELS 3 Xrotation Yrotation Zrotation
												End Site
												{
													OFFSET -2.793793 0.057053 -0.126857
												}
											}
										}
									}
								}
							}
						}
					}
				}
			}
		}
	}
	JOINT mixamorig:LeftUpLeg
	{
		OFFSET 13.580879 -8.149223 -1.796077
		CHANNELS 3 Xrotation Yrotation Zrotation
		JOINT mixamorig:LeftLeg
		{
			OFFSET 3.676140 -35.802425 -2.676071
			CHANNELS 3 Xrotation Yrotation Zrotation
			JOINT mixamorig:LeftFoot
			{
				OFFSET -0.369089 -26.709160 -2.057140
				CHANNELS 3 Xrotation Yrotation Zrotation
				JOINT mixamorig:LeftToeBase
				{
					OFFSET -1.192477 -6.581660 13.403662
					CHANNELS 3 Xrotation Yrotation Zrotation
					JOINT mixamorig:LeftToe_End
					{
						OFFSET -0.351336 -0.163913 5.937977
						CHANNELS 3 Xrotation Yrotation Zrotation
						End Site
						{
							OFFSET -0.351338 -0.163913 5.937977
						}
					}
				}
			}
		}
	}
	JOINT mixamorig:RightUpLeg
	{
		OFFSET -13.580879 -8.149223 -2.255285
		CHANNELS 3 Xrotation Yrotation Zrotation
		JOINT mixamorig:RightLeg
		{
			OFFSET -3.676140 -35.802425 -2.316821
			CHANNELS 3 Xrotation Yrotation Zrotation
			JOINT mixamorig:RightFoot
			{
				OFFSET 0.369059 -26.709040 -2.090143
				CHANNELS 3 Xrotation Yrotation Zrotation
				JOINT mixamorig:RightToeBase
				{
					OFFSET 1.192393 -6.582436 13.372205
					CHANNELS 3 Xrotation Yrotation Zrotation
					JOINT mixamorig:RightToe_End
					{
						OFFSET 0.351307 -0.164255 5.913618
						CHANNELS 3 Xrotation Yrotation Zrotation
						End Site
						{
							OFFSET 0.351309 -0.164255 5.913618
						}
					}
				}
			}
		}
	}
}
MOTION
Frames: 5
Frame Time: 0.016667
0.009422 80.996048 7.979524 -3.209736 -2.309701 6.894866 0.125070 2.941695 2.350445 1.273408 6.010160 -8.438823 1.178873 5.988979 -8.462487 -2.089083 -0.218354 2.592317 4.463388 0.897850 13.059645 0.000000 -0.000001 -0.000000 0.236571 6.179443 -6.864370 -0.900470 -34.128898 25.618597 -0.500634 -6.576124 -6.049388 -1.249740 -17.338956 2.891554 0.502950 14.934525 6.990534 3.243158 -4.685040 -5.926731 -4.844261 -4.083317 5.619819 -0.000001 0.000000 -0.000003 0.509186 -9.502660 4.517073 0.063327 -0.001048 1.268596 -0.055502 -0.042252 -1.080125 0.000001 0.000001 -0.000000 0.434686 -8.111753 2.827725 0.109504 0.003079 4.283362 0.023896 0.002756 0.928674 -0.000001 -0.000001 0.000001 0.501514 -7.500524 0.383163 0.052701 0.011190 3.564967 0.111721 0.034712 7.655613 0.000000 0.000003 -0.000001 0.167549 -3.304136 1.337015 0.222181 -4.067123 2.027896 -0.010429 0.000642 -0.824850 -0.000002 -0.000003 0.000000 0.129099 -7.697591 5.326250 8.191121 14.578559 62.262304 65.945654 96.087094 -65.615223 3.273707 -5.108122 18.429917 0.259795 -14.130571 -6.864758 3.954623 4.132431 6.367105 -6.083581 10.687322 -4.186516 0.000001 0.000002 0.000004 0.073153 7.745650 -5.834480 -0.002610 0.000549 0.344926 -0.064324 0.005338 8.597329 -0.000002 0.000001 -0.000001 0.506737 9.067925 0.022960 0.199776 -0.011251 -6.461140 0.034368 0.002813 -1.113794 0.000001 0.000002 0.000004 0.241811 7.468042 -2.727049 0.000270 -0.002802 -0.105051 0.022542 -0.043706 -9.608445 0.000002 -0.000001 -0.000006 0.581468 9.933751 0.641907 0.139718 -0.004655 -3.025815 -0.016332 -0.000743 0.353341 0.000001 0.000001 -0.000001 -9.453361 2.305234 -15.196553 27.993655 5.472994 0.548466 21.091701 1.741566 9.554392 -36.477219 0.030907 -1.102723 0.000000 0.000000 -0.000001 -42.393908 4.134811 4.888851 89.037704 -14.436505 1.969742 23.397909 -7.373739 -20.296551 0.000015 0.000003 -0.000007 0.000002 0.000002 0.000001 
-0.150703 80.811844 8.306340 -3.939862 1.835433 7.608353 0.453387 2.372764 1.679311 1.518216 4.370905 -8.454252 1.451854 4.378022 -8.459701 -2.004298 -0.281835 2.576136 4.243171 0.468475 13.271432 -0.000000 -0.000001 -0.000000 0.262246 6.486991 -7.639875 -4.985888 -38.962227 21.208822 -0.653162 -8.097580 -6.066688 -2.508985 -19.463553 4.579783 0.502948 14.934518 6.990529 3.243161 -4.685046 -5.926730 -4.844263 -4.083319 5.619817 -0.000001 -0.000002 -0.000001 0.509187 -9.502669 4.517072 0.063328 -0.001048 1.268593 -0.055501 -0.042247 -1.080122 0.000000 0.000002 0.000001 0.434690 -8.111755 2.827727 0.109501 0.003071 4.283361 0.023893 0.002758 0.928675 -0.000001 -0.000004 0.000001 0.501515 -7.500523 0.383159 0.052700 0.011195 3.564965 0.111721 0.034717 7.655608 -0.000001 0.000001 -0.000003 0.167550 -3.304142 1.337015 0.222181 -4.067127 2.027895 -0.010430 0.000643 -0.824855 -0.000001 -0.000004 -0.000001 0.128598 -7.293021 5.021378 13.729352 14.753133 59.872475 109.296359 95.884654 -108.745006 7.062592 -7.104110 18.721311 0.259797 -14.130572 -6.864757 3.954623 4.132431 6.367105 -6.083582 10.687322 -4.186511 -0.000000 0.000005 0.000004 0.073156 7.745651 -5.834482 -0.002608 0.000550 0.344927 -0.064330 0.005343 8.597330 -0.000002 0.000000 0.000002 0.506738 9.067926 0.022954 0.199777 -0.011254 -6.461139 0.034365 0.002815 -1.113794 -0.000000 0.000000 0.000000 0.241813 7.468043 -2.727050 0.000265 -0.002802 -0.105063 0.022543 -0.043707 -9.608449 -0.000000 0.000000 -0.000004 0.581469 9.933755 0.641907 0.139719 -0.004653 -3.025817 -0.016330 -0.000737 0.353345 -0.000001 0.000000 -0.000001 -9.208131 2.994032 -15.666567 29.669625 5.788752 0.734740 19.797071 1.786221 11.136880 -36.778147 0.011877 -0.667996 0.000000 -0.000001 -0.000001 -42.255211 5.101749 3.240052 82.787780 -14.183277 1.722287 22.988532 -7.020602 -21.050337 0.000010 0.000004 -0.000006 0.000003 0.000001 0.000001 
-0.289663 80.538040 8.738045 -4.683468 6.300444 8.323213 0.697393 1.694449 0.895632 1.648573 2.650190 -8.357546 1.612357 2.676831 -8.355563 -1.893767 -0.354433 2.594128 4.143768 0.068240 13.391170 0.000000 0.000001 -0.000001 0.282900 6.718983 -8.240534 -9.063736 -43.271485 15.644477 -0.845283 -9.998171 -6.094214 -2.673396 -21.019506 6.559880 0.502949 14.934516 6.990531 3.243161 -4.685043 -5.926730 -4.844264 -4.083320 5.619819 -0.000001 0.000003 0.000000 0.509186 -9.502668 4.517070 0.063327 -0.001044 1.268593 -0.055501 -0.042243 -1.080123 -0.000001 -0.000000 -0.000001 0.434688 -8.111748 2.827724 0.109503 0.003081 4.283365 0.023898 0.002761 0.928678 0.000000 -0.000000 0.000000 0.501517 -7.500521 0.383159 0.052703 0.011196 3.564966 0.111720 0.034713 7.655605 0.000000 0.000001 -0.000000 0.167551 -3.304133 1.337013 0.222182 -4.067119 2.027895 -0.010429 0.000647 -0.824853 0.000000 -0.000000 0.000000 0.126232 -7.022530 4.783426 18.641683 14.362889 57.178492 140.615604 98.705714 -139.825092 10.958331 -8.987344 19.681487 0.259797 -14.130573 -6.864755 3.954624 4.132429 6.367096 -6.083585 10.687320 -4.186515 -0.000001 0.000002 0.000002 0.073157 7.745650 -5.834478 -0.002609 0.000545 0.344930 -0.064328 0.005341 8.597332 -0.000000 0.000000 -0.000001 0.506740 9.067920 0.022959 0.199774 -0.011253 -6.461136 0.034370 0.002813 -1.113794 -0.000001 -0.000003 -0.000001 0.241813 7.468041 -2.727051 0.000269 -0.002802 -0.105058 0.022542 -0.043708 -9.608445 0.000002 -0.000003 -0.000000 0.581470 9.933751 0.641907 0.139718 -0.004653 -3.025812 -0.016333 -0.000739 0.353341 0.000002 0.000000 0.000005 -9.243947 3.643732 -16.033674 32.045622 6.183543 0.980704 18.010632 1.794782 12.708984 -37.101430 0.001047 -0.183761 0.000000 -0.000000 -0.000000 -41.399809 5.543176 0.985102 75.751142 -13.685852 1.471042 22.599636 -6.561214 -22.086347 0.000009 -0.000000 -0.000002 0.000002 0.000001 0.000001 
-0.401577 80.210876 9.268030 -5.403003 11.045535 8.984802 0.828259 0.921914 0.092497 1.641339 0.892559 -8.172392 1.631394 0.927848 -8.170850 -1.759203 -0.447406 2.664844 4.164842 -0.328340 13.413236 0.000000 -0.000000 0.000001 0.298815 6.850869 -8.645801 -13.432524 -47.035869 8.914001 -1.094840 -12.434802 -6.139276 -1.807423 -21.538274 9.054069 0.502947 14.934521 6.990527 3.243159 -4.685040 -5.926732 -4.844264 -4.083317 5.619816 0.000000 0.000002 -0.000001 0.509186 -9.502665 4.517069 0.063327 -0.001046 1.268593 -0.055501 -0.042245 -1.080118 0.000000 0.000001 0.000001 0.434686 -8.111748 2.827721 0.109499 0.003075 4.283360 0.023900 0.002763 0.928679 -0.000002 -0.000001 0.000003 0.501517 -7.500518 0.383156 0.052699 0.011195 3.564970 0.111720 0.034714 7.655610 -0.000001 0.000001 0.000003 0.167551 -3.304137 1.337011 0.222183 -4.067117 2.027900 -0.010432 0.000647 -0.824858 -0.000001 -0.000001 0.000001 0.120601 -6.868805 4.585095 23.199448 13.729875 54.159415 155.584592 103.208284 -154.527962 14.126211 -9.384627 20.450051 0.259801 -14.130572 -6.864756 3.954625 4.132428 6.367103 -6.083586 10.687322 -4.186516 -0.000001 0.000005 0.000005 0.073158 7.745652 -5.834475 -0.002608 0.000546 0.344923 -0.064324 0.005338 8.597332 0.000000 0.000002 -0.000003 0.506740 9.067921 0.022960 0.199781 -0.011254 -6.461139 0.034368 0.002815 -1.113793 -0.000003 -0.000002 0.000001 0.241810 7.468045 -2.727045 0.000267 -0.002802 -0.105057 0.022540 -0.043708 -9.608445 -0.000001 0.000002 -0.000003 0.581473 9.933750 0.641911 0.139717 -0.004656 -3.025814 -0.016332 -0.000744 0.353345 0.000006 -0.000000 0.000000 -9.511118 4.200636 -16.092779 34.858810 6.678564 0.956465 15.890877 1.773372 14.538338 -37.941045 0.000025 -0.000038 0.000000 0.000000 0.000000 -39.982548 5.645611 -1.473402 68.358097 -12.600324 1.235468 22.516991 -6.471425 -22.966263 -7.040962 -0.605436 4.858030 -0.000001 -0.000001 0.000002 
-0.485156 79.859528 9.885163 -6.066254 15.974149 9.567951 0.843002 0.098902 -0.687566 1.500200 -0.850519 -7.921525 1.509019 -0.816170 -7.923863 -1.612476 -0.570845 2.793786 4.271952 -0.761837 13.323639 -0.000000 0.000001 0.000001 0.311129 6.877850 -8.870638 -18.495753 -50.201361 0.889864 -1.428690 -15.625036 -6.215726 -0.164452 -20.838656 12.074957 0.502952 14.934518 6.990526 3.243157 -4.685040 -5.926729 -4.844260 -4.083319 5.619819 0.000000 0.000004 -0.000001 0.509184 -9.502668 4.517068 0.063326 -0.001048 1.268593 -0.055500 -0.042242 -1.080121 -0.000001 0.000002 -0.000004 0.434690 -8.111754 2.827721 0.109501 0.003078 4.283360 0.023898 0.002764 0.928679 0.000001 -0.000001 -0.000000 0.501514 -7.500523 0.383156 0.052701 0.011197 3.564965 0.111721 0.034714 7.655609 0.000000 -0.000000 0.000005 0.167553 -3.304140 1.337009 0.222181 -4.067119 2.027896 -0.010429 0.000645 -0.824859 -0.000000 -0.000000 0.000004 0.111145 -6.805025 4.400683 29.161913 14.825545 50.638292 163.048937 108.373696 -161.710644 15.690973 -8.006035 20.279588 0.259799 -14.130580 -6.864759 3.954622 4.132437 6.367110 -6.083580 10.687323 -4.186516 -0.000003 0.000000 0.000005 0.073156 7.745648 -5.834476 -0.002607 0.000552 0.344922 -0.064326 0.005339 8.597327 0.000000 -0.000001 -0.000001 0.506739 9.067921 0.022958 0.199777 -0.011253 -6.461140 0.034369 0.002809 -1.113796 -0.000002 -0.000002 0.000002 0.241818 7.468039 -2.727044 0.000265 -0.002805 -0.105055 0.022541 -0.043704 -9.608446 0.000001 0.000002 -0.000001 0.581471 9.933749 0.641910 0.139715 -0.004655 -3.025813 -0.016328 -0.000742 0.353343 0.000000 0.000001 0.000003 -9.952837 4.596348 -15.620832 37.869417 7.292020 0.181855 13.602812 1.715412 16.922501 -39.125957 0.000020 -0.000042 -0.000000 -0.000001 -0.000000 -38.128633 5.817454 -3.749124 61.166509 -11.704853 1.026620 22.821621 -6.294863 -23.476566 -15.714512 -2.848867 10.297791 0.000003 -0.000001 0.000002 
